# MagicaVoxel @ Ephtracy

# group
g Table

# material
mtllib Table.mtl
usemtl palette

# normals
vn -1 0 0
vn 1 0 0
vn 0 0 1
vn 0 0 -1
vn 0 -1 0
vn 0 1 0

# texcoords
vt 0.0644531 0.5

# verts
v -9.5 0 7.5
v -9.5 0 5.5
v -9.5 0 -6.5
v -9.5 0 -8.5
v -9.5 10 5.5
v -9.5 10 -6.5
v -9.5 12 7.5
v -9.5 12 -8.5
v -7.5 10 5.5
v -7.5 10 4.5
v -7.5 10 -5.5
v -7.5 10 -6.5
v -7.5 11 5.5
v -7.5 11 4.5
v -7.5 11 -5.5
v -7.5 11 -6.5
v -6.5 10 4.5
v -6.5 10 3.5
v -6.5 10 -4.5
v -6.5 10 -5.5
v -6.5 11 4.5
v -6.5 11 3.5
v -6.5 11 -4.5
v -6.5 11 -5.5
v -5.5 10 3.5
v -5.5 10 2.5
v -5.5 10 -3.5
v -5.5 10 -4.5
v -5.5 11 3.5
v -5.5 11 2.5
v -5.5 11 -3.5
v -5.5 11 -4.5
v -4.5 10 2.5
v -4.5 10 1.5
v -4.5 10 -2.5
v -4.5 10 -3.5
v -4.5 11 2.5
v -4.5 11 1.5
v -4.5 11 -2.5
v -4.5 11 -3.5
v -3.5 10 1.5
v -3.5 10 0.5
v -3.5 10 -1.5
v -3.5 10 -2.5
v -3.5 11 1.5
v -3.5 11 0.5
v -3.5 11 -1.5
v -3.5 11 -2.5
v -2.5 10 0.5
v -2.5 10 -1.5
v -2.5 11 0.5
v -2.5 11 -1.5
v 0.5 10 2.5
v 0.5 10 1.5
v 0.5 10 -2.5
v 0.5 10 -3.5
v 0.5 11 2.5
v 0.5 11 1.5
v 0.5 11 -2.5
v 0.5 11 -3.5
v 1.5 10 3.5
v 1.5 10 2.5
v 1.5 10 -3.5
v 1.5 10 -4.5
v 1.5 11 3.5
v 1.5 11 2.5
v 1.5 11 -3.5
v 1.5 11 -4.5
v 2.5 10 4.5
v 2.5 10 3.5
v 2.5 10 -4.5
v 2.5 10 -5.5
v 2.5 11 4.5
v 2.5 11 3.5
v 2.5 11 -4.5
v 2.5 11 -5.5
v 3.5 10 5.5
v 3.5 10 4.5
v 3.5 10 -5.5
v 3.5 10 -6.5
v 3.5 11 5.5
v 3.5 11 4.5
v 3.5 11 -5.5
v 3.5 11 -6.5
v 4.5 10 6.5
v 4.5 10 5.5
v 4.5 10 -6.5
v 4.5 10 -7.5
v 4.5 11 6.5
v 4.5 11 5.5
v 4.5 11 -6.5
v 4.5 11 -7.5
v 7.5 0 7.5
v 7.5 0 5.5
v 7.5 0 -6.5
v 7.5 0 -8.5
v 7.5 10 7.5
v 7.5 10 5.5
v 7.5 10 -6.5
v 7.5 10 -8.5
v 8.5 10 5.5
v 8.5 10 -6.5
v 8.5 11 5.5
v 8.5 11 -6.5
v -8.5 10 5.5
v -8.5 10 -6.5
v -8.5 11 5.5
v -8.5 11 -6.5
v -7.5 0 7.5
v -7.5 0 5.5
v -7.5 0 -6.5
v -7.5 0 -8.5
v -7.5 10 7.5
v -7.5 10 5.5
v -7.5 10 -6.5
v -7.5 10 -8.5
v -4.5 10 6.5
v -4.5 10 5.5
v -4.5 10 -6.5
v -4.5 10 -7.5
v -4.5 11 6.5
v -4.5 11 5.5
v -4.5 11 -6.5
v -4.5 11 -7.5
v -3.5 10 5.5
v -3.5 10 4.5
v -3.5 10 -5.5
v -3.5 10 -6.5
v -3.5 11 5.5
v -3.5 11 4.5
v -3.5 11 -5.5
v -3.5 11 -6.5
v -2.5 10 4.5
v -2.5 10 3.5
v -2.5 10 -4.5
v -2.5 10 -5.5
v -2.5 11 4.5
v -2.5 11 3.5
v -2.5 11 -4.5
v -2.5 11 -5.5
v -1.5 10 3.5
v -1.5 10 2.5
v -1.5 10 -3.5
v -1.5 10 -4.5
v -1.5 11 3.5
v -1.5 11 2.5
v -1.5 11 -3.5
v -1.5 11 -4.5
v -0.5 10 2.5
v -0.5 10 1.5
v -0.5 10 -2.5
v -0.5 10 -3.5
v -0.5 11 2.5
v -0.5 11 1.5
v -0.5 11 -2.5
v -0.5 11 -3.5
v 2.5 10 0.5
v 2.5 10 -1.5
v 2.5 11 0.5
v 2.5 11 -1.5
v 3.5 10 1.5
v 3.5 10 0.5
v 3.5 10 -1.5
v 3.5 10 -2.5
v 3.5 11 1.5
v 3.5 11 0.5
v 3.5 11 -1.5
v 3.5 11 -2.5
v 4.5 10 2.5
v 4.5 10 1.5
v 4.5 10 -2.5
v 4.5 10 -3.5
v 4.5 11 2.5
v 4.5 11 1.5
v 4.5 11 -2.5
v 4.5 11 -3.5
v 5.5 10 3.5
v 5.5 10 2.5
v 5.5 10 -3.5
v 5.5 10 -4.5
v 5.5 11 3.5
v 5.5 11 2.5
v 5.5 11 -3.5
v 5.5 11 -4.5
v 6.5 10 4.5
v 6.5 10 3.5
v 6.5 10 -4.5
v 6.5 10 -5.5
v 6.5 11 4.5
v 6.5 11 3.5
v 6.5 11 -4.5
v 6.5 11 -5.5
v 7.5 10 5.5
v 7.5 10 4.5
v 7.5 10 -5.5
v 7.5 10 -6.5
v 7.5 11 5.5
v 7.5 11 4.5
v 7.5 11 -5.5
v 7.5 11 -6.5
v 9.5 0 7.5
v 9.5 0 5.5
v 9.5 0 -6.5
v 9.5 0 -8.5
v 9.5 10 5.5
v 9.5 10 -6.5
v 9.5 12 7.5
v 9.5 12 -8.5
v -9.5 0 7.5
v -9.5 12 7.5
v -7.5 0 7.5
v -7.5 10 7.5
v 7.5 0 7.5
v 7.5 10 7.5
v 9.5 0 7.5
v 9.5 12 7.5
v -4.5 10 5.5
v -4.5 11 5.5
v -3.5 10 5.5
v -3.5 11 5.5
v 3.5 10 5.5
v 3.5 11 5.5
v 4.5 10 5.5
v 4.5 11 5.5
v -3.5 10 4.5
v -3.5 11 4.5
v -2.5 10 4.5
v -2.5 11 4.5
v 2.5 10 4.5
v 2.5 11 4.5
v 3.5 10 4.5
v 3.5 11 4.5
v -2.5 10 3.5
v -2.5 11 3.5
v -1.5 10 3.5
v -1.5 11 3.5
v 1.5 10 3.5
v 1.5 11 3.5
v 2.5 10 3.5
v 2.5 11 3.5
v -1.5 10 2.5
v -1.5 11 2.5
v -0.5 10 2.5
v -0.5 11 2.5
v 0.5 10 2.5
v 0.5 11 2.5
v 1.5 10 2.5
v 1.5 11 2.5
v -0.5 10 1.5
v -0.5 11 1.5
v 0.5 10 1.5
v 0.5 11 1.5
v -3.5 10 -1.5
v -3.5 11 -1.5
v -2.5 10 -1.5
v -2.5 11 -1.5
v 2.5 10 -1.5
v 2.5 11 -1.5
v 3.5 10 -1.5
v 3.5 11 -1.5
v -4.5 10 -2.5
v -4.5 11 -2.5
v -3.5 10 -2.5
v -3.5 11 -2.5
v 3.5 10 -2.5
v 3.5 11 -2.5
v 4.5 10 -2.5
v 4.5 11 -2.5
v -5.5 10 -3.5
v -5.5 11 -3.5
v -4.5 10 -3.5
v -4.5 11 -3.5
v 4.5 10 -3.5
v 4.5 11 -3.5
v 5.5 10 -3.5
v 5.5 11 -3.5
v -6.5 10 -4.5
v -6.5 11 -4.5
v -5.5 10 -4.5
v -5.5 11 -4.5
v 5.5 10 -4.5
v 5.5 11 -4.5
v 6.5 10 -4.5
v 6.5 11 -4.5
v -7.5 10 -5.5
v -7.5 11 -5.5
v -6.5 10 -5.5
v -6.5 11 -5.5
v 6.5 10 -5.5
v 6.5 11 -5.5
v 7.5 10 -5.5
v 7.5 11 -5.5
v -9.5 0 -6.5
v -9.5 10 -6.5
v -8.5 10 -6.5
v -8.5 11 -6.5
v -7.5 0 -6.5
v -7.5 10 -6.5
v -7.5 11 -6.5
v 7.5 0 -6.5
v 7.5 10 -6.5
v 7.5 11 -6.5
v 8.5 10 -6.5
v 8.5 11 -6.5
v 9.5 0 -6.5
v 9.5 10 -6.5
v -4.5 10 -7.5
v -4.5 11 -7.5
v 4.5 10 -7.5
v 4.5 11 -7.5
v -4.5 10 6.5
v -4.5 11 6.5
v 4.5 10 6.5
v 4.5 11 6.5
v -9.5 0 5.5
v -9.5 10 5.5
v -8.5 10 5.5
v -8.5 11 5.5
v -7.5 0 5.5
v -7.5 10 5.5
v -7.5 11 5.5
v 7.5 0 5.5
v 7.5 10 5.5
v 7.5 11 5.5
v 8.5 10 5.5
v 8.5 11 5.5
v 9.5 0 5.5
v 9.5 10 5.5
v -7.5 10 4.5
v -7.5 11 4.5
v -6.5 10 4.5
v -6.5 11 4.5
v 6.5 10 4.5
v 6.5 11 4.5
v 7.5 10 4.5
v 7.5 11 4.5
v -6.5 10 3.5
v -6.5 11 3.5
v -5.5 10 3.5
v -5.5 11 3.5
v 5.5 10 3.5
v 5.5 11 3.5
v 6.5 10 3.5
v 6.5 11 3.5
v -5.5 10 2.5
v -5.5 11 2.5
v -4.5 10 2.5
v -4.5 11 2.5
v 4.5 10 2.5
v 4.5 11 2.5
v 5.5 10 2.5
v 5.5 11 2.5
v -4.5 10 1.5
v -4.5 11 1.5
v -3.5 10 1.5
v -3.5 11 1.5
v 3.5 10 1.5
v 3.5 11 1.5
v 4.5 10 1.5
v 4.5 11 1.5
v -3.5 10 0.5
v -3.5 11 0.5
v -2.5 10 0.5
v -2.5 11 0.5
v 2.5 10 0.5
v 2.5 11 0.5
v 3.5 10 0.5
v 3.5 11 0.5
v -0.5 10 -2.5
v -0.5 11 -2.5
v 0.5 10 -2.5
v 0.5 11 -2.5
v -1.5 10 -3.5
v -1.5 11 -3.5
v -0.5 10 -3.5
v -0.5 11 -3.5
v 0.5 10 -3.5
v 0.5 11 -3.5
v 1.5 10 -3.5
v 1.5 11 -3.5
v -2.5 10 -4.5
v -2.5 11 -4.5
v -1.5 10 -4.5
v -1.5 11 -4.5
v 1.5 10 -4.5
v 1.5 11 -4.5
v 2.5 10 -4.5
v 2.5 11 -4.5
v -3.5 10 -5.5
v -3.5 11 -5.5
v -2.5 10 -5.5
v -2.5 11 -5.5
v 2.5 10 -5.5
v 2.5 11 -5.5
v 3.5 10 -5.5
v 3.5 11 -5.5
v -4.5 10 -6.5
v -4.5 11 -6.5
v -3.5 10 -6.5
v -3.5 11 -6.5
v 3.5 10 -6.5
v 3.5 11 -6.5
v 4.5 10 -6.5
v 4.5 11 -6.5
v -9.5 0 -8.5
v -9.5 12 -8.5
v -7.5 0 -8.5
v -7.5 10 -8.5
v 7.5 0 -8.5
v 7.5 10 -8.5
v 9.5 0 -8.5
v 9.5 12 -8.5
v -9.5 0 7.5
v -7.5 0 7.5
v 7.5 0 7.5
v 9.5 0 7.5
v -9.5 0 5.5
v -7.5 0 5.5
v 7.5 0 5.5
v 9.5 0 5.5
v -9.5 0 -6.5
v -7.5 0 -6.5
v 7.5 0 -6.5
v 9.5 0 -6.5
v -9.5 0 -8.5
v -7.5 0 -8.5
v 7.5 0 -8.5
v 9.5 0 -8.5
v -7.5 10 7.5
v 7.5 10 7.5
v -4.5 10 6.5
v 4.5 10 6.5
v -9.5 10 5.5
v -8.5 10 5.5
v -7.5 10 5.5
v -4.5 10 5.5
v -3.5 10 5.5
v 3.5 10 5.5
v 4.5 10 5.5
v 7.5 10 5.5
v 8.5 10 5.5
v 9.5 10 5.5
v -7.5 10 4.5
v -6.5 10 4.5
v -3.5 10 4.5
v -2.5 10 4.5
v 2.5 10 4.5
v 3.5 10 4.5
v 6.5 10 4.5
v 7.5 10 4.5
v -6.5 10 3.5
v -5.5 10 3.5
v -2.5 10 3.5
v -1.5 10 3.5
v 1.5 10 3.5
v 2.5 10 3.5
v 5.5 10 3.5
v 6.5 10 3.5
v -5.5 10 2.5
v -4.5 10 2.5
v -1.5 10 2.5
v -0.5 10 2.5
v 0.5 10 2.5
v 1.5 10 2.5
v 4.5 10 2.5
v 5.5 10 2.5
v -4.5 10 1.5
v -3.5 10 1.5
v -0.5 10 1.5
v 0.5 10 1.5
v 3.5 10 1.5
v 4.5 10 1.5
v -3.5 10 0.5
v -2.5 10 0.5
v 2.5 10 0.5
v 3.5 10 0.5
v -3.5 10 -1.5
v -2.5 10 -1.5
v 2.5 10 -1.5
v 3.5 10 -1.5
v -4.5 10 -2.5
v -3.5 10 -2.5
v -0.5 10 -2.5
v 0.5 10 -2.5
v 3.5 10 -2.5
v 4.5 10 -2.5
v -5.5 10 -3.5
v -4.5 10 -3.5
v -1.5 10 -3.5
v -0.5 10 -3.5
v 0.5 10 -3.5
v 1.5 10 -3.5
v 4.5 10 -3.5
v 5.5 10 -3.5
v -6.5 10 -4.5
v -5.5 10 -4.5
v -2.5 10 -4.5
v -1.5 10 -4.5
v 1.5 10 -4.5
v 2.5 10 -4.5
v 5.5 10 -4.5
v 6.5 10 -4.5
v -7.5 10 -5.5
v -6.5 10 -5.5
v -3.5 10 -5.5
v -2.5 10 -5.5
v 2.5 10 -5.5
v 3.5 10 -5.5
v 6.5 10 -5.5
v 7.5 10 -5.5
v -9.5 10 -6.5
v -8.5 10 -6.5
v -7.5 10 -6.5
v -4.5 10 -6.5
v -3.5 10 -6.5
v 3.5 10 -6.5
v 4.5 10 -6.5
v 7.5 10 -6.5
v 8.5 10 -6.5
v 9.5 10 -6.5
v -4.5 10 -7.5
v 4.5 10 -7.5
v -7.5 10 -8.5
v 7.5 10 -8.5
v -4.5 11 6.5
v 4.5 11 6.5
v -8.5 11 5.5
v -7.5 11 5.5
v -4.5 11 5.5
v -3.5 11 5.5
v 3.5 11 5.5
v 4.5 11 5.5
v 7.5 11 5.5
v 8.5 11 5.5
v -7.5 11 4.5
v -6.5 11 4.5
v -3.5 11 4.5
v -2.5 11 4.5
v 2.5 11 4.5
v 3.5 11 4.5
v 6.5 11 4.5
v 7.5 11 4.5
v -6.5 11 3.5
v -5.5 11 3.5
v -2.5 11 3.5
v -1.5 11 3.5
v 1.5 11 3.5
v 2.5 11 3.5
v 5.5 11 3.5
v 6.5 11 3.5
v -5.5 11 2.5
v -4.5 11 2.5
v -1.5 11 2.5
v -0.5 11 2.5
v 0.5 11 2.5
v 1.5 11 2.5
v 4.5 11 2.5
v 5.5 11 2.5
v -4.5 11 1.5
v -3.5 11 1.5
v -0.5 11 1.5
v 0.5 11 1.5
v 3.5 11 1.5
v 4.5 11 1.5
v -3.5 11 0.5
v -2.5 11 0.5
v 2.5 11 0.5
v 3.5 11 0.5
v -3.5 11 -1.5
v -2.5 11 -1.5
v 2.5 11 -1.5
v 3.5 11 -1.5
v -4.5 11 -2.5
v -3.5 11 -2.5
v -0.5 11 -2.5
v 0.5 11 -2.5
v 3.5 11 -2.5
v 4.5 11 -2.5
v -5.5 11 -3.5
v -4.5 11 -3.5
v -1.5 11 -3.5
v -0.5 11 -3.5
v 0.5 11 -3.5
v 1.5 11 -3.5
v 4.5 11 -3.5
v 5.5 11 -3.5
v -6.5 11 -4.5
v -5.5 11 -4.5
v -2.5 11 -4.5
v -1.5 11 -4.5
v 1.5 11 -4.5
v 2.5 11 -4.5
v 5.5 11 -4.5
v 6.5 11 -4.5
v -7.5 11 -5.5
v -6.5 11 -5.5
v -3.5 11 -5.5
v -2.5 11 -5.5
v 2.5 11 -5.5
v 3.5 11 -5.5
v 6.5 11 -5.5
v 7.5 11 -5.5
v -8.5 11 -6.5
v -7.5 11 -6.5
v -4.5 11 -6.5
v -3.5 11 -6.5
v 3.5 11 -6.5
v 4.5 11 -6.5
v 7.5 11 -6.5
v 8.5 11 -6.5
v -4.5 11 -7.5
v 4.5 11 -7.5
v -9.5 12 7.5
v 9.5 12 7.5
v -9.5 12 -8.5
v 9.5 12 -8.5

# faces
f 5/1/1 2/1/1 1/1/1
f 6/1/1 4/1/1 3/1/1
f 7/1/1 5/1/1 1/1/1
f 7/1/1 6/1/1 5/1/1
f 8/1/1 4/1/1 6/1/1
f 8/1/1 6/1/1 7/1/1
f 13/1/1 10/1/1 9/1/1
f 14/1/1 10/1/1 13/1/1
f 15/1/1 12/1/1 11/1/1
f 16/1/1 12/1/1 15/1/1
f 21/1/1 18/1/1 17/1/1
f 22/1/1 18/1/1 21/1/1
f 23/1/1 20/1/1 19/1/1
f 24/1/1 20/1/1 23/1/1
f 29/1/1 26/1/1 25/1/1
f 30/1/1 26/1/1 29/1/1
f 31/1/1 28/1/1 27/1/1
f 32/1/1 28/1/1 31/1/1
f 37/1/1 34/1/1 33/1/1
f 38/1/1 34/1/1 37/1/1
f 39/1/1 36/1/1 35/1/1
f 40/1/1 36/1/1 39/1/1
f 45/1/1 42/1/1 41/1/1
f 46/1/1 42/1/1 45/1/1
f 47/1/1 44/1/1 43/1/1
f 48/1/1 44/1/1 47/1/1
f 51/1/1 50/1/1 49/1/1
f 52/1/1 50/1/1 51/1/1
f 57/1/1 54/1/1 53/1/1
f 58/1/1 54/1/1 57/1/1
f 59/1/1 56/1/1 55/1/1
f 60/1/1 56/1/1 59/1/1
f 65/1/1 62/1/1 61/1/1
f 66/1/1 62/1/1 65/1/1
f 67/1/1 64/1/1 63/1/1
f 68/1/1 64/1/1 67/1/1
f 73/1/1 70/1/1 69/1/1
f 74/1/1 70/1/1 73/1/1
f 75/1/1 72/1/1 71/1/1
f 76/1/1 72/1/1 75/1/1
f 81/1/1 78/1/1 77/1/1
f 82/1/1 78/1/1 81/1/1
f 83/1/1 80/1/1 79/1/1
f 84/1/1 80/1/1 83/1/1
f 89/1/1 86/1/1 85/1/1
f 90/1/1 86/1/1 89/1/1
f 91/1/1 88/1/1 87/1/1
f 92/1/1 88/1/1 91/1/1
f 97/1/1 94/1/1 93/1/1
f 98/1/1 94/1/1 97/1/1
f 99/1/1 96/1/1 95/1/1
f 100/1/1 96/1/1 99/1/1
f 103/1/1 102/1/1 101/1/1
f 104/1/1 102/1/1 103/1/1
f 105/1/2 106/1/2 107/1/2
f 107/1/2 106/1/2 108/1/2
f 109/1/2 110/1/2 113/1/2
f 113/1/2 110/1/2 114/1/2
f 111/1/2 112/1/2 115/1/2
f 115/1/2 112/1/2 116/1/2
f 117/1/2 118/1/2 121/1/2
f 121/1/2 118/1/2 122/1/2
f 119/1/2 120/1/2 123/1/2
f 123/1/2 120/1/2 124/1/2
f 125/1/2 126/1/2 129/1/2
f 129/1/2 126/1/2 130/1/2
f 127/1/2 128/1/2 131/1/2
f 131/1/2 128/1/2 132/1/2
f 133/1/2 134/1/2 137/1/2
f 137/1/2 134/1/2 138/1/2
f 135/1/2 136/1/2 139/1/2
f 139/1/2 136/1/2 140/1/2
f 141/1/2 142/1/2 145/1/2
f 145/1/2 142/1/2 146/1/2
f 143/1/2 144/1/2 147/1/2
f 147/1/2 144/1/2 148/1/2
f 149/1/2 150/1/2 153/1/2
f 153/1/2 150/1/2 154/1/2
f 151/1/2 152/1/2 155/1/2
f 155/1/2 152/1/2 156/1/2
f 157/1/2 158/1/2 159/1/2
f 159/1/2 158/1/2 160/1/2
f 161/1/2 162/1/2 165/1/2
f 165/1/2 162/1/2 166/1/2
f 163/1/2 164/1/2 167/1/2
f 167/1/2 164/1/2 168/1/2
f 169/1/2 170/1/2 173/1/2
f 173/1/2 170/1/2 174/1/2
f 171/1/2 172/1/2 175/1/2
f 175/1/2 172/1/2 176/1/2
f 177/1/2 178/1/2 181/1/2
f 181/1/2 178/1/2 182/1/2
f 179/1/2 180/1/2 183/1/2
f 183/1/2 180/1/2 184/1/2
f 185/1/2 186/1/2 189/1/2
f 189/1/2 186/1/2 190/1/2
f 187/1/2 188/1/2 191/1/2
f 191/1/2 188/1/2 192/1/2
f 193/1/2 194/1/2 197/1/2
f 197/1/2 194/1/2 198/1/2
f 195/1/2 196/1/2 199/1/2
f 199/1/2 196/1/2 200/1/2
f 201/1/2 202/1/2 205/1/2
f 203/1/2 204/1/2 206/1/2
f 201/1/2 205/1/2 207/1/2
f 205/1/2 206/1/2 207/1/2
f 206/1/2 204/1/2 208/1/2
f 207/1/2 206/1/2 208/1/2
f 211/1/3 210/1/3 209/1/3
f 212/1/3 210/1/3 211/1/3
f 214/1/3 210/1/3 212/1/3
f 215/1/3 214/1/3 213/1/3
f 216/1/3 210/1/3 214/1/3
f 216/1/3 214/1/3 215/1/3
f 219/1/3 218/1/3 217/1/3
f 220/1/3 218/1/3 219/1/3
f 223/1/3 222/1/3 221/1/3
f 224/1/3 222/1/3 223/1/3
f 227/1/3 226/1/3 225/1/3
f 228/1/3 226/1/3 227/1/3
f 231/1/3 230/1/3 229/1/3
f 232/1/3 230/1/3 231/1/3
f 235/1/3 234/1/3 233/1/3
f 236/1/3 234/1/3 235/1/3
f 239/1/3 238/1/3 237/1/3
f 240/1/3 238/1/3 239/1/3
f 243/1/3 242/1/3 241/1/3
f 244/1/3 242/1/3 243/1/3
f 247/1/3 246/1/3 245/1/3
f 248/1/3 246/1/3 247/1/3
f 251/1/3 250/1/3 249/1/3
f 252/1/3 250/1/3 251/1/3
f 255/1/3 254/1/3 253/1/3
f 256/1/3 254/1/3 255/1/3
f 259/1/3 258/1/3 257/1/3
f 260/1/3 258/1/3 259/1/3
f 263/1/3 262/1/3 261/1/3
f 264/1/3 262/1/3 263/1/3
f 267/1/3 266/1/3 265/1/3
f 268/1/3 266/1/3 267/1/3
f 271/1/3 270/1/3 269/1/3
f 272/1/3 270/1/3 271/1/3
f 275/1/3 274/1/3 273/1/3
f 276/1/3 274/1/3 275/1/3
f 279/1/3 278/1/3 277/1/3
f 280/1/3 278/1/3 279/1/3
f 283/1/3 282/1/3 281/1/3
f 284/1/3 282/1/3 283/1/3
f 287/1/3 286/1/3 285/1/3
f 288/1/3 286/1/3 287/1/3
f 291/1/3 290/1/3 289/1/3
f 292/1/3 290/1/3 291/1/3
f 295/1/3 294/1/3 293/1/3
f 297/1/3 295/1/3 293/1/3
f 297/1/3 296/1/3 295/1/3
f 298/1/3 296/1/3 297/1/3
f 299/1/3 296/1/3 298/1/3
f 303/1/3 301/1/3 300/1/3
f 303/1/3 302/1/3 301/1/3
f 304/1/3 302/1/3 303/1/3
f 305/1/3 303/1/3 300/1/3
f 306/1/3 303/1/3 305/1/3
f 309/1/3 308/1/3 307/1/3
f 310/1/3 308/1/3 309/1/3
f 311/1/4 312/1/4 313/1/4
f 313/1/4 312/1/4 314/1/4
f 315/1/4 316/1/4 317/1/4
f 315/1/4 317/1/4 319/1/4
f 317/1/4 318/1/4 319/1/4
f 319/1/4 318/1/4 320/1/4
f 320/1/4 318/1/4 321/1/4
f 322/1/4 323/1/4 325/1/4
f 323/1/4 324/1/4 325/1/4
f 325/1/4 324/1/4 326/1/4
f 322/1/4 325/1/4 327/1/4
f 327/1/4 325/1/4 328/1/4
f 329/1/4 330/1/4 331/1/4
f 331/1/4 330/1/4 332/1/4
f 333/1/4 334/1/4 335/1/4
f 335/1/4 334/1/4 336/1/4
f 337/1/4 338/1/4 339/1/4
f 339/1/4 338/1/4 340/1/4
f 341/1/4 342/1/4 343/1/4
f 343/1/4 342/1/4 344/1/4
f 345/1/4 346/1/4 347/1/4
f 347/1/4 346/1/4 348/1/4
f 349/1/4 350/1/4 351/1/4
f 351/1/4 350/1/4 352/1/4
f 353/1/4 354/1/4 355/1/4
f 355/1/4 354/1/4 356/1/4
f 357/1/4 358/1/4 359/1/4
f 359/1/4 358/1/4 360/1/4
f 361/1/4 362/1/4 363/1/4
f 363/1/4 362/1/4 364/1/4
f 365/1/4 366/1/4 367/1/4
f 367/1/4 366/1/4 368/1/4
f 369/1/4 370/1/4 371/1/4
f 371/1/4 370/1/4 372/1/4
f 373/1/4 374/1/4 375/1/4
f 375/1/4 374/1/4 376/1/4
f 377/1/4 378/1/4 379/1/4
f 379/1/4 378/1/4 380/1/4
f 381/1/4 382/1/4 383/1/4
f 383/1/4 382/1/4 384/1/4
f 385/1/4 386/1/4 387/1/4
f 387/1/4 386/1/4 388/1/4
f 389/1/4 390/1/4 391/1/4
f 391/1/4 390/1/4 392/1/4
f 393/1/4 394/1/4 395/1/4
f 395/1/4 394/1/4 396/1/4
f 397/1/4 398/1/4 399/1/4
f 399/1/4 398/1/4 400/1/4
f 401/1/4 402/1/4 403/1/4
f 403/1/4 402/1/4 404/1/4
f 405/1/4 406/1/4 407/1/4
f 407/1/4 406/1/4 408/1/4
f 408/1/4 406/1/4 410/1/4
f 409/1/4 410/1/4 411/1/4
f 410/1/4 406/1/4 412/1/4
f 411/1/4 410/1/4 412/1/4
f 417/1/5 414/1/5 413/1/5
f 418/1/5 414/1/5 417/1/5
f 419/1/5 416/1/5 415/1/5
f 420/1/5 416/1/5 419/1/5
f 425/1/5 422/1/5 421/1/5
f 426/1/5 422/1/5 425/1/5
f 427/1/5 424/1/5 423/1/5
f 428/1/5 424/1/5 427/1/5
f 431/1/5 430/1/5 429/1/5
f 432/1/5 430/1/5 431/1/5
f 435/1/5 431/1/5 429/1/5
f 436/1/5 431/1/5 435/1/5
f 439/1/5 430/1/5 432/1/5
f 440/1/5 430/1/5 439/1/5
f 443/1/5 437/1/5 436/1/5
f 443/1/5 436/1/5 435/1/5
f 444/1/5 437/1/5 443/1/5
f 445/1/5 437/1/5 444/1/5
f 448/1/5 440/1/5 439/1/5
f 448/1/5 439/1/5 438/1/5
f 449/1/5 440/1/5 448/1/5
f 450/1/5 440/1/5 449/1/5
f 451/1/5 446/1/5 445/1/5
f 451/1/5 445/1/5 444/1/5
f 452/1/5 446/1/5 451/1/5
f 453/1/5 446/1/5 452/1/5
f 456/1/5 449/1/5 448/1/5
f 456/1/5 448/1/5 447/1/5
f 457/1/5 449/1/5 456/1/5
f 458/1/5 449/1/5 457/1/5
f 459/1/5 454/1/5 453/1/5
f 459/1/5 453/1/5 452/1/5
f 460/1/5 454/1/5 459/1/5
f 461/1/5 454/1/5 460/1/5
f 464/1/5 457/1/5 456/1/5
f 464/1/5 456/1/5 455/1/5
f 465/1/5 457/1/5 464/1/5
f 466/1/5 457/1/5 465/1/5
f 467/1/5 462/1/5 461/1/5
f 467/1/5 461/1/5 460/1/5
f 468/1/5 462/1/5 467/1/5
f 469/1/5 462/1/5 468/1/5
f 470/1/5 465/1/5 464/1/5
f 470/1/5 464/1/5 463/1/5
f 471/1/5 465/1/5 470/1/5
f 472/1/5 465/1/5 471/1/5
f 473/1/5 469/1/5 468/1/5
f 473/1/5 471/1/5 470/1/5
f 473/1/5 470/1/5 469/1/5
f 474/1/5 471/1/5 473/1/5
f 475/1/5 471/1/5 474/1/5
f 476/1/5 471/1/5 475/1/5
f 478/1/5 475/1/5 474/1/5
f 479/1/5 475/1/5 478/1/5
f 482/1/5 478/1/5 477/1/5
f 482/1/5 480/1/5 479/1/5
f 482/1/5 479/1/5 478/1/5
f 483/1/5 480/1/5 482/1/5
f 484/1/5 480/1/5 483/1/5
f 485/1/5 480/1/5 484/1/5
f 488/1/5 482/1/5 481/1/5
f 488/1/5 483/1/5 482/1/5
f 489/1/5 483/1/5 488/1/5
f 490/1/5 483/1/5 489/1/5
f 491/1/5 485/1/5 484/1/5
f 491/1/5 486/1/5 485/1/5
f 492/1/5 486/1/5 491/1/5
f 493/1/5 486/1/5 492/1/5
f 496/1/5 489/1/5 488/1/5
f 496/1/5 488/1/5 487/1/5
f 497/1/5 489/1/5 496/1/5
f 498/1/5 489/1/5 497/1/5
f 499/1/5 493/1/5 492/1/5
f 499/1/5 494/1/5 493/1/5
f 500/1/5 494/1/5 499/1/5
f 501/1/5 494/1/5 500/1/5
f 504/1/5 497/1/5 496/1/5
f 504/1/5 496/1/5 495/1/5
f 505/1/5 497/1/5 504/1/5
f 506/1/5 497/1/5 505/1/5
f 507/1/5 501/1/5 500/1/5
f 507/1/5 502/1/5 501/1/5
f 508/1/5 502/1/5 507/1/5
f 509/1/5 502/1/5 508/1/5
f 511/1/5 434/1/5 433/1/5
f 512/1/5 434/1/5 511/1/5
f 513/1/5 505/1/5 504/1/5
f 513/1/5 504/1/5 503/1/5
f 514/1/5 505/1/5 513/1/5
f 515/1/5 505/1/5 514/1/5
f 516/1/5 510/1/5 509/1/5
f 516/1/5 509/1/5 508/1/5
f 517/1/5 510/1/5 516/1/5
f 518/1/5 510/1/5 517/1/5
f 519/1/5 442/1/5 441/1/5
f 520/1/5 442/1/5 519/1/5
f 521/1/5 514/1/5 513/1/5
f 522/1/5 518/1/5 517/1/5
f 523/1/5 521/1/5 513/1/5
f 523/1/5 522/1/5 521/1/5
f 524/1/5 518/1/5 522/1/5
f 524/1/5 522/1/5 523/1/5
f 529/1/5 526/1/5 525/1/5
f 530/1/5 526/1/5 529/1/5
f 531/1/5 526/1/5 530/1/5
f 532/1/5 526/1/5 531/1/5
f 535/1/5 528/1/5 527/1/5
f 537/1/5 531/1/5 530/1/5
f 538/1/5 531/1/5 537/1/5
f 539/1/5 531/1/5 538/1/5
f 540/1/5 531/1/5 539/1/5
f 542/1/5 534/1/5 533/1/5
f 543/1/5 536/1/5 535/1/5
f 545/1/5 539/1/5 538/1/5
f 546/1/5 539/1/5 545/1/5
f 547/1/5 539/1/5 546/1/5
f 548/1/5 539/1/5 547/1/5
f 550/1/5 542/1/5 541/1/5
f 551/1/5 544/1/5 543/1/5
f 553/1/5 547/1/5 546/1/5
f 554/1/5 547/1/5 553/1/5
f 555/1/5 547/1/5 554/1/5
f 556/1/5 547/1/5 555/1/5
f 558/1/5 550/1/5 549/1/5
f 559/1/5 552/1/5 551/1/5
f 561/1/5 555/1/5 554/1/5
f 562/1/5 555/1/5 561/1/5
f 564/1/5 558/1/5 557/1/5
f 565/1/5 560/1/5 559/1/5
f 568/1/5 564/1/5 563/1/5
f 569/1/5 566/1/5 565/1/5
f 569/1/5 565/1/5 559/1/5
f 570/1/5 566/1/5 569/1/5
f 571/1/5 568/1/5 567/1/5
f 572/1/5 564/1/5 568/1/5
f 572/1/5 568/1/5 571/1/5
f 573/1/5 559/1/5 551/1/5
f 573/1/5 569/1/5 559/1/5
f 574/1/5 569/1/5 573/1/5
f 577/1/5 564/1/5 572/1/5
f 578/1/5 558/1/5 564/1/5
f 578/1/5 564/1/5 577/1/5
f 579/1/5 551/1/5 543/1/5
f 579/1/5 573/1/5 551/1/5
f 580/1/5 573/1/5 579/1/5
f 582/1/5 576/1/5 575/1/5
f 583/1/5 576/1/5 582/1/5
f 585/1/5 558/1/5 578/1/5
f 586/1/5 550/1/5 558/1/5
f 586/1/5 558/1/5 585/1/5
f 587/1/5 543/1/5 535/1/5
f 587/1/5 579/1/5 543/1/5
f 588/1/5 579/1/5 587/1/5
f 590/1/5 583/1/5 582/1/5
f 590/1/5 584/1/5 583/1/5
f 590/1/5 582/1/5 581/1/5
f 591/1/5 584/1/5 590/1/5
f 593/1/5 550/1/5 586/1/5
f 594/1/5 542/1/5 550/1/5
f 594/1/5 550/1/5 593/1/5
f 595/1/5 535/1/5 527/1/5
f 595/1/5 587/1/5 535/1/5
f 596/1/5 587/1/5 595/1/5
f 598/1/5 592/1/5 591/1/5
f 598/1/5 591/1/5 590/1/5
f 598/1/5 590/1/5 589/1/5
f 599/1/5 592/1/5 598/1/5
f 601/1/5 542/1/5 594/1/5
f 602/1/5 534/1/5 542/1/5
f 602/1/5 542/1/5 601/1/5
f 603/1/5 595/1/5 527/1/5
f 604/1/5 595/1/5 603/1/5
f 606/1/5 600/1/5 599/1/5
f 606/1/5 599/1/5 598/1/5
f 606/1/5 598/1/5 597/1/5
f 607/1/5 600/1/5 606/1/5
f 609/1/5 534/1/5 602/1/5
f 610/1/5 534/1/5 609/1/5
f 611/1/5 608/1/5 607/1/5
f 611/1/5 606/1/5 605/1/5
f 611/1/5 607/1/5 606/1/5
f 612/1/5 608/1/5 611/1/5
f 613/1/6 614/1/6 615/1/6
f 615/1/6 614/1/6 616/1/6
