# MagicaVoxel @ Ephtracy

# group
g Bow

# material
mtllib Bow.mtl
usemtl palette

# normals
vn -1 0 0
vn 1 0 0
vn 0 0 1
vn 0 0 -1
vn 0 -1 0
vn 0 1 0

# texcoords
vt 0.396484 0.5
vt 0.958984 0.5
vt 0.974609 0.5

# verts
v -1.5 31 15.5
v -1.5 31 13.5
v -1.5 31 -12.5
v -1.5 31 -14.5
v -1.5 32 15.5
v -1.5 32 13.5
v -1.5 32 -12.5
v -1.5 32 -14.5
v -0.5 30 15.5
v -0.5 30 13.5
v -0.5 30 -12.5
v -0.5 30 -14.5
v -0.5 31 17.5
v -0.5 31 15.5
v -0.5 31 13.5
v -0.5 31 -12.5
v -0.5 31 -14.5
v -0.5 32 17.5
v -0.5 32 15.5
v -0.5 32 13.5
v -0.5 32 -12.5
v -0.5 32 -14.5
v -0.5 33 15.5
v -0.5 33 13.5
v -0.5 33 -12.5
v -0.5 33 -14.5
v 0.5 30 15.5
v 0.5 30 13.5
v 0.5 30 -12.5
v 0.5 30 -14.5
v 0.5 31 17.5
v 0.5 31 15.5
v 0.5 31 13.5
v 0.5 31 -12.5
v 0.5 31 -14.5
v 0.5 32 17.5
v 0.5 32 15.5
v 0.5 32 13.5
v 0.5 32 -12.5
v 0.5 32 -14.5
v 0.5 33 15.5
v 0.5 33 13.5
v 0.5 33 -12.5
v 0.5 33 -14.5
v 1.5 31 15.5
v 1.5 31 13.5
v 1.5 31 -12.5
v 1.5 31 -14.5
v 1.5 32 15.5
v 1.5 32 13.5
v 1.5 32 -12.5
v 1.5 32 -14.5
v -0.5 31 17.5
v -0.5 32 17.5
v 0.5 31 17.5
v 0.5 32 17.5
v -1.5 31 15.5
v -1.5 32 15.5
v -0.5 30 15.5
v -0.5 31 15.5
v -0.5 32 15.5
v -0.5 33 15.5
v 0.5 30 15.5
v 0.5 31 15.5
v 0.5 32 15.5
v 0.5 33 15.5
v 1.5 31 15.5
v 1.5 32 15.5
v -1.5 31 -12.5
v -1.5 32 -12.5
v -0.5 30 -12.5
v -0.5 31 -12.5
v -0.5 32 -12.5
v -0.5 33 -12.5
v 0.5 30 -12.5
v 0.5 31 -12.5
v 0.5 32 -12.5
v 0.5 33 -12.5
v 1.5 31 -12.5
v 1.5 32 -12.5
v -1.5 31 13.5
v -1.5 32 13.5
v -0.5 30 13.5
v -0.5 31 13.5
v -0.5 32 13.5
v -0.5 33 13.5
v 0.5 30 13.5
v 0.5 31 13.5
v 0.5 32 13.5
v 0.5 33 13.5
v 1.5 31 13.5
v 1.5 32 13.5
v -1.5 31 -14.5
v -1.5 32 -14.5
v -0.5 30 -14.5
v -0.5 31 -14.5
v -0.5 32 -14.5
v -0.5 33 -14.5
v 0.5 30 -14.5
v 0.5 31 -14.5
v 0.5 32 -14.5
v 0.5 33 -14.5
v 1.5 31 -14.5
v 1.5 32 -14.5
v -0.5 30 15.5
v 0.5 30 15.5
v -0.5 30 13.5
v 0.5 30 13.5
v -0.5 30 -12.5
v 0.5 30 -12.5
v -0.5 30 -14.5
v 0.5 30 -14.5
v -0.5 31 17.5
v 0.5 31 17.5
v -1.5 31 15.5
v -0.5 31 15.5
v 0.5 31 15.5
v 1.5 31 15.5
v -1.5 31 13.5
v -0.5 31 13.5
v 0.5 31 13.5
v 1.5 31 13.5
v -1.5 31 -12.5
v -0.5 31 -12.5
v 0.5 31 -12.5
v 1.5 31 -12.5
v -1.5 31 -14.5
v -0.5 31 -14.5
v 0.5 31 -14.5
v 1.5 31 -14.5
v -0.5 32 17.5
v 0.5 32 17.5
v -1.5 32 15.5
v -0.5 32 15.5
v 0.5 32 15.5
v 1.5 32 15.5
v -1.5 32 13.5
v -0.5 32 13.5
v 0.5 32 13.5
v 1.5 32 13.5
v -1.5 32 -12.5
v -0.5 32 -12.5
v 0.5 32 -12.5
v 1.5 32 -12.5
v -1.5 32 -14.5
v -0.5 32 -14.5
v 0.5 32 -14.5
v 1.5 32 -14.5
v -0.5 33 15.5
v 0.5 33 15.5
v -0.5 33 13.5
v 0.5 33 13.5
v -0.5 33 -12.5
v 0.5 33 -12.5
v -0.5 33 -14.5
v 0.5 33 -14.5

# faces
f 5/3/1 2/3/1 1/3/1
f 6/3/1 2/3/1 5/3/1
f 7/2/1 4/2/1 3/2/1
f 8/2/1 4/2/1 7/2/1
f 14/3/1 10/3/1 9/3/1
f 15/3/1 10/3/1 14/3/1
f 16/2/1 12/2/1 11/2/1
f 17/2/1 12/2/1 16/2/1
f 18/3/1 14/3/1 13/3/1
f 19/3/1 14/3/1 18/3/1
f 20/1/1 16/1/1 15/1/1
f 21/1/1 16/1/1 20/1/1
f 23/3/1 20/3/1 19/3/1
f 24/3/1 20/3/1 23/3/1
f 25/2/1 22/2/1 21/2/1
f 26/2/1 22/2/1 25/2/1
f 27/3/2 28/3/2 32/3/2
f 32/3/2 28/3/2 33/3/2
f 29/2/2 30/2/2 34/2/2
f 34/2/2 30/2/2 35/2/2
f 31/3/2 32/3/2 36/3/2
f 36/3/2 32/3/2 37/3/2
f 33/1/2 34/1/2 38/1/2
f 38/1/2 34/1/2 39/1/2
f 37/3/2 38/3/2 41/3/2
f 41/3/2 38/3/2 42/3/2
f 39/2/2 40/2/2 43/2/2
f 43/2/2 40/2/2 44/2/2
f 45/3/2 46/3/2 49/3/2
f 49/3/2 46/3/2 50/3/2
f 47/2/2 48/2/2 51/2/2
f 51/2/2 48/2/2 52/2/2
f 55/3/3 54/3/3 53/3/3
f 56/3/3 54/3/3 55/3/3
f 60/3/3 58/3/3 57/3/3
f 61/3/3 58/3/3 60/3/3
f 63/3/3 60/3/3 59/3/3
f 64/3/3 60/3/3 63/3/3
f 65/3/3 62/3/3 61/3/3
f 66/3/3 62/3/3 65/3/3
f 67/3/3 65/3/3 64/3/3
f 68/3/3 65/3/3 67/3/3
f 72/2/3 70/2/3 69/2/3
f 73/2/3 70/2/3 72/2/3
f 75/2/3 72/2/3 71/2/3
f 76/2/3 72/2/3 75/2/3
f 77/2/3 74/2/3 73/2/3
f 78/2/3 74/2/3 77/2/3
f 79/2/3 77/2/3 76/2/3
f 80/2/3 77/2/3 79/2/3
f 81/3/4 82/3/4 84/3/4
f 84/3/4 82/3/4 85/3/4
f 83/3/4 84/3/4 87/3/4
f 87/3/4 84/3/4 88/3/4
f 85/3/4 86/3/4 89/3/4
f 89/3/4 86/3/4 90/3/4
f 88/3/4 89/3/4 91/3/4
f 91/3/4 89/3/4 92/3/4
f 93/2/4 94/2/4 96/2/4
f 96/2/4 94/2/4 97/2/4
f 95/2/4 96/2/4 99/2/4
f 96/1/4 97/1/4 100/1/4
f 99/2/4 96/2/4 100/2/4
f 97/2/4 98/2/4 101/2/4
f 100/1/4 97/1/4 101/1/4
f 101/2/4 98/2/4 102/2/4
f 100/2/4 101/2/4 103/2/4
f 103/2/4 101/2/4 104/2/4
f 107/3/5 106/3/5 105/3/5
f 108/3/5 106/3/5 107/3/5
f 111/2/5 110/2/5 109/2/5
f 112/2/5 110/2/5 111/2/5
f 116/3/5 114/3/5 113/3/5
f 117/3/5 114/3/5 116/3/5
f 119/3/5 116/3/5 115/3/5
f 120/3/5 116/3/5 119/3/5
f 121/3/5 118/3/5 117/3/5
f 122/3/5 118/3/5 121/3/5
f 124/1/5 121/1/5 120/1/5
f 125/1/5 121/1/5 124/1/5
f 127/2/5 124/2/5 123/2/5
f 128/2/5 124/2/5 127/2/5
f 129/2/5 126/2/5 125/2/5
f 130/2/5 126/2/5 129/2/5
f 131/3/6 132/3/6 134/3/6
f 134/3/6 132/3/6 135/3/6
f 133/3/6 134/3/6 137/3/6
f 137/3/6 134/3/6 138/3/6
f 135/3/6 136/3/6 139/3/6
f 139/3/6 136/3/6 140/3/6
f 138/1/6 139/1/6 142/1/6
f 142/1/6 139/1/6 143/1/6
f 141/2/6 142/2/6 145/2/6
f 145/2/6 142/2/6 146/2/6
f 143/2/6 144/2/6 147/2/6
f 147/2/6 144/2/6 148/2/6
f 149/3/6 150/3/6 151/3/6
f 151/3/6 150/3/6 152/3/6
f 153/2/6 154/2/6 155/2/6
f 155/2/6 154/2/6 156/2/6
